<?xml version="1.0" encoding="UTF-8" standalone="no"?>
<svg
   xmlns:dc="http://purl.org/dc/elements/1.1/"
   xmlns:cc="http://creativecommons.org/ns#"
   xmlns:rdf="http://www.w3.org/1999/02/22-rdf-syntax-ns#"
   xmlns:svg="http://www.w3.org/2000/svg"
   xmlns="http://www.w3.org/2000/svg"
   xmlns:sodipodi="http://sodipodi.sourceforge.net/DTD/sodipodi-0.dtd"
   xmlns:inkscape="http://www.inkscape.org/namespaces/inkscape"
   width="215.70378mm"
   height="42.487099mm"
   viewBox="0 0 215.70378 42.4871"
   version="1.1"
   id="svg42"
   inkscape:version="1.0.1 (3bc2e813f5, 2020-09-07)"
   sodipodi:docname="FoodZilla.svg">
  <defs
     id="defs36" />
  <sodipodi:namedview
     id="base"
     pagecolor="#ffffff"
     bordercolor="#666666"
     borderopacity="1.0"
     inkscape:pageopacity="0.0"
     inkscape:pageshadow="2"
     inkscape:zoom="2.5619812"
     inkscape:cx="664.84486"
     inkscape:cy="-18.883225"
     inkscape:document-units="mm"
     inkscape:current-layer="layer1"
     inkscape:document-rotation="0"
     showgrid="false"
     inkscape:snap-global="false"
     fit-margin-top="0"
     fit-margin-left="0"
     fit-margin-right="0"
     fit-margin-bottom="0"
     inkscape:window-width="2400"
     inkscape:window-height="1284"
     inkscape:window-x="2391"
     inkscape:window-y="29"
     inkscape:window-maximized="1" />
  <metadata
     id="metadata39">
    <rdf:RDF>
      <cc:Work
         rdf:about="">
        <dc:format>image/svg+xml</dc:format>
        <dc:type
           rdf:resource="http://purl.org/dc/dcmitype/StillImage" />
        <dc:title />
      </cc:Work>
    </rdf:RDF>
  </metadata>
  <g
     inkscape:label="Layer 1"
     inkscape:groupmode="layer"
     id="layer1"
     transform="translate(6.7292801,-46.445741)">
    <path
       style="fill:#000000;stroke-width:0.264583"
       d="m -4.1040625,88.353205 c 1.00313,-9.354458 3.50832,-19.912458 4.1565,-28.592632 -2.2744778,0.58723 -5.1756241,2.325264 -6.6292671,3.984151 0,0 -0.021938,-0.01106 -0.070643,-0.112493 -0.3982517,-0.829399 0.68787,-4.37749 2.59789,-6.87897 4.61625,-5.256803 11.69452,-6.159066 16.8784206,-6.80458 16.56537,-2.108492 32.04734,6.674652 44.64466,8.742079 8.56106,1.125846 14.44002,0.885437 21.2295,-3.741909 2.19823,-1.51076 6.13999,-5.25234 7.73041,-7.33784 0.53652,-0.703527 1.02924,-1.225386 1.09494,-1.159687 -2.82801,4.628085 -9.8412,11.386735 -14.24508,13.350445 -6.20094,2.299933 -11.986276,2.381407 -18.774526,1.081946 -13.397994,-2.671182 -29.554931,-7.354761 -45.3314746,-2.928724 -0.11659,0.10598 -0.37989,1.43079 -0.58512,2.94404 -0.20522,1.51324 -0.4405,3.20933 -0.52283,3.76909 l -0.1497,1.01775 3.9759706,-0.19173 3.97596,-0.19173 v 0.79976 c 0,1.71477 -1.03904,4.26566 -2.254,5.533663 l -1.16853,1.21954 -2.7866506,-0.14223 c -1.53266,-0.0782 -2.78665,-0.0648 -2.78665,0.0299 0,0.0947 -0.52879,3.20724 -1.17508,6.91681 -1.13694,6.525729 -1.20102,6.767869 -1.97402,7.459289 -1.49362,0.87559 -7.1357,2.76578 -7.83068,1.23399 z m 30.2895005,-0.23852 c -3.81975,-0.9074 -7.08136,-4.06198 -8.05175,-7.787559 -0.78867,-3.02795 -0.3512,-6.63993 1.10653,-9.13607 1.1685,-2.000873 3.42959,-4.156253 5.38777,-5.135893 5.92677,-2.96504 12.32104,-0.79858 15.15849,5.135893 0.75214,1.57309 0.82187,1.94549 0.81749,4.36563 -0.004,2.07974 -0.131,2.98352 -0.59465,4.22416 -0.32442,0.86808 -0.58985,1.60391 -0.58985,1.63518 0,0.18071 1.74547,-0.48986 2.51819,-0.96743 1.43407,-0.8863 1.97972,-1.8477 1.97972,-3.48811 0,-5.77961 4.63252,-11.115693 10.51086,-12.107203 4.73731,-0.79906 9.34952,1.73135 11.55199,6.337773 0.75214,1.57309 0.82187,1.94549 0.81749,4.36563 -0.004,2.07974 -0.131,2.98352 -0.59465,4.22416 -0.32442,0.86808 -0.58985,1.60391 -0.58985,1.63518 0,0.0313 0.36141,-0.0468 0.80313,-0.1735 1.93783,-0.55576 3.95937,-2.49227 3.95937,-3.79283 0,-1.54784 0.85892,-4.93208 1.7027,-6.708853 2.80843,-5.91376 8.67011,-7.8294 12.62522,-4.12603 0.64788,0.60664 0.71276,0.61967 0.84322,0.16933 0.0777,-0.26833 0.21404,-2.57147 0.3029,-5.11809 0.20911,-5.99262 0.28831,-6.46787 1.26267,-7.57761 1.32847,-1.51304 2.6301,-2.02918 5.45094,-2.16148 l 2.4762,-0.11613 -0.15897,1.02501 c -0.77231,4.97957 -3.09564,25.642523 -2.99921,26.674023 0.15296,1.63641 1.04412,2.52911 2.52475,2.52911 1.83943,0 3.42966,-1.62754 5.683862,-5.81723 0.73044,-1.35758 0.75819,-1.37706 1.7198,-1.20679 1.56288,0.27674 1.90341,0.42189 1.90341,0.81132 0,0.76066 -1.9675,4.84021 -3.328,6.900489 -1.583802,2.39844 -3.104352,3.7783 -5.242022,4.75696 -3.7349,1.70989 -7.46329,0.76664 -9.40813,-2.38018 l -0.55318,-0.89507 -1.51805,1.51805 c -3.36759,3.36759 -7.69171,3.51731 -10.67927,0.36976 -0.52967,-0.55803 -1.16989,-1.43132 -1.42271,-1.94064 -0.25283,-0.50933 -0.50007,-0.97166 -0.54944,-1.0274 -0.0494,-0.0558 -0.53385,0.28856 -1.07664,0.76514 -0.54279,0.47658 -1.61982,1.14641 -2.3934,1.48853 -1.4257,0.63051 -4.51721,1.24079 -5.66624,1.11856 -0.3457,-0.0368 -1.28338,0.23705 -2.08375,0.60851 -3.17856,1.47522 -6.03256,1.6159 -9.12871,0.44997 -1.25062,-0.47094 -2.02676,-1.03679 -3.66245,-2.67009 l -2.07554,-2.07251 -1.06638,0.96341 c -0.5865,0.52987 -1.70781,1.24708 -2.49179,1.59379 -1.44126,0.63739 -4.52986,1.2497 -5.68513,1.12706 -0.3457,-0.0367 -1.22324,0.21304 -1.95009,0.55498 -2.6314,1.2379 -5.24821,1.60513 -7.54685,1.05909 z m 3.03119,-7.927789 c 0.0295,-1.77633 0.60103,-2.72152 2.02592,-3.35018 0.95848,-0.42288 1.03275,-0.53344 1.02736,-1.52939 -0.0112,-2.0608 -1.40538,-4.11627 -2.79206,-4.11627 -0.99495,0 -2.32171,1.1463 -3.10935,2.68639 -0.61493,1.2024 -0.75809,1.82357 -0.76057,3.30002 -0.004,2.11225 0.29835,3.03605 1.29363,3.95845 0.49979,0.46319 0.95485,0.64027 1.5038,0.58518 0.76474,-0.0768 0.78782,-0.1204 0.81127,-1.5342 z m 26.19375,0 c 0.0295,-1.77633 0.60103,-2.72152 2.02592,-3.35018 0.95848,-0.42288 1.03275,-0.53344 1.02736,-1.52939 -0.0111,-2.0608 -1.40538,-4.11627 -2.79206,-4.11627 -0.99495,0 -2.32171,1.1463 -3.10935,2.68639 -0.61493,1.2024 -0.75809,1.82357 -0.76057,3.30002 -0.004,2.11225 0.29835,3.03605 1.29363,3.95845 0.49979,0.46319 0.95485,0.64027 1.5038,0.58518 0.76474,-0.0768 0.78782,-0.1204 0.81127,-1.5342 z m 26.56677,0.15309 c 0.87429,-0.45211 2.02078,-2.46612 2.42135,-4.25352 0.54648,-2.43854 -0.56795,-4.89734 -2.21836,-4.89442 -2.24461,0.004 -4.36706,4.26157 -3.75386,7.53019 0.34053,1.81517 1.84428,2.50027 3.55087,1.61775 z m 18.825652,7.170969 c 0,-2.18166 0.72443,-3.43666 9.12143,-15.801839 4.58375,-6.749903 8.24636,-12.358453 8.13914,-12.463443 -0.10722,-0.10499 -2.27854,0.10525 -4.82516,0.4672 -2.54661,0.36196 -5.02426,0.58558 -5.50589,0.49694 -2.11213,-0.38872 -3.93002,-3.1993 -4.20711,-6.50447 l -0.15333,-1.82887 h 13.53213 13.53212 v 0.97483 c 0,2.58474 -0.48996,3.4328 -9.29634,16.09079 -4.6571,6.693963 -8.57619,12.367513 -8.70909,12.607893 -0.18815,0.34029 -0.14015,0.41515 0.21679,0.33815 2.89181,-0.62386 9.20238,-1.70124 9.96474,-1.70124 2.67425,0 4.6489,2.757609 4.6489,6.492209 v 1.70987 H 114.03196 100.8028 Z m 33.47101,0.47007 c -1.4325,-0.54618 -3.1521,-2.29461 -3.8667,-3.93153 -0.8732,-2.000209 -0.92351,-5.798399 -0.1756,-13.255309 l 0.61035,-6.085423 1.1862,0.0815 c 3.26713,0.22447 5.59338,1.63564 5.96542,3.6188 0.12509,0.66674 -0.0191,2.476403 -0.40559,5.090913 -0.98719,6.67786 -0.53522,8.539 2.07366,8.539 1.09551,0 1.30815,-0.11636 2.53834,-1.38906 0.73847,-0.76399 1.73156,-2.16297 2.20687,-3.10886 0.85696,-1.70536 0.87476,-1.81972 2.12095,-13.626043 l 1.25673,-11.90625 1.79039,0.0417 c 3.3869,0.0789 5.67916,1.84187 6.13809,4.7208 0.11816,0.74128 -0.35331,4.08324 -1.57384,11.15576 -0.95839,5.553593 -1.74253,10.468743 -1.74253,10.922573 0,1.12193 0.63372,2.55595 1.28312,2.9035 0.84564,0.45257 2.1471,0.33482 3.14999,-0.285 0.92295,-0.57042 3.39932,-4.03378 3.64239,-5.09412 0.0697,-0.30399 0.6963,-5.910523 1.39246,-12.458963 l 1.26576,-11.90625 1.7904,0.0417 c 3.3869,0.0789 5.67915,1.84187 6.13808,4.7208 0.11817,0.74128 -0.35331,4.08324 -1.57383,11.15576 -0.9584,5.553593 -1.74254,10.468743 -1.74254,10.922573 0,1.12193 0.63373,2.55595 1.28312,2.9035 1.57458,0.842689 3.49608,-0.0429 5.03495,-2.3205 1.48781,-2.20203 1.6305,-2.53774 2.14413,-5.04472 0.8614,-4.204483 3.30969,-7.789463 6.16879,-9.032833 2.59233,-1.12737 5.74496,-0.65769 7.59919,1.13213 0.68499,0.66119 1.31774,0.69727 1.31774,0.0751 0,-0.51201 1.42106,-1.62529 2.55038,-1.998 0.92516,-0.30533 4.5234,-0.22584 5.07005,0.11201 0.12637,0.0781 -0.23344,3.27251 -0.79958,7.098683 -1.32301,8.9415 -1.20389,9.84495 1.34307,10.18657 1.90834,0.25597 3.48676,-1.20369 5.73448,-5.30298 0.99122,-1.80775 0.99203,-1.80843 1.94714,-1.63954 1.86191,0.32925 1.95047,0.3914 1.77906,1.24848 -0.26053,1.30264 -2.18622,5.17766 -3.46038,6.963239 -2.16826,3.03854 -4.88568,4.82333 -7.73313,5.07906 -2.77456,0.24919 -4.86519,-0.70279 -6.33034,-2.88255 l -0.82528,-1.22781 -1.29138,1.32281 c -1.96561,2.01345 -3.50497,2.72095 -5.92159,2.7216 -1.52194,5.3e-4 -2.23101,-0.13137 -3.04271,-0.56546 -1.32725,-0.70981 -2.55581,-2.00208 -3.28173,-3.45189 l -0.56065,-1.11974 -1.78298,1.80369 c -2.46648,2.49513 -4.24991,3.33627 -7.07464,3.33671 -3.09599,5.3e-4 -4.8024,-1.05273 -6.22564,-3.84252 l -0.51181,-1.00322 -1.65836,1.65287 c -2.34902,2.34123 -4.20188,3.19245 -6.95002,3.19287 -3.14587,5.3e-4 -4.88727,-1.10521 -6.29096,-3.99444 l -0.53947,-1.11039 -1.74416,1.787 c -2.17147,2.22479 -4.16411,3.23461 -6.63896,3.36447 -1.10445,0.0579 -2.09802,-0.054 -2.7769,-0.31281 z m 53.39257,-7.800469 c 0.88735,-0.69799 1.98586,-2.97047 2.20136,-4.55394 0.21091,-1.54967 -0.30329,-3.52339 -1.05511,-4.04998 -2.9939,-2.097013 -6.82994,5.33061 -4.36888,8.45934 0.68008,0.86457 2.21951,0.93364 3.22263,0.14458 z"
       id="path58"
       sodipodi:nodetypes="cccsccccsccccsscccssccsscccssssscsssssscsscssssssscssscssssscssscsscssscssssscscsscsccssssscscssscssssscsccccssccsscccscsscsccssccccccssscccsssscscssssscssssssscscsscscscscscscccsscss" />
    <ellipse
       style="fill:#000000;fill-rule:evenodd;stroke-width:0.248992"
       id="path22"
       cx="135.97615"
       cy="-57.291809"
       rx="4.9404235"
       ry="4.9740691"
       transform="scale(1,-1)" />
  </g>
</svg>
